<?xml version="1.0" encoding="utf-8"?>
<svg width="1710" height="400" viewBox="0 0 171 40" fill="none" xmlns="http://www.w3.org/2000/svg">
    <rect width="171" height="40" rx="5" fill="black"/>
    <path d="M16.917 19.073C17.3277 19.1463 17.676 19.3627 17.962 19.722C18.248 20.0813 18.391 20.4883 18.391 20.943C18.391 21.3317 18.2883 21.6837 18.083 21.999C17.885 22.307 17.5953 22.5527 17.214 22.736C16.8327 22.912 16.389 23 15.883 23H12.825V15.355H15.74C16.2607 15.355 16.708 15.443 17.082 15.619C17.456 15.795 17.7383 16.0333 17.929 16.334C18.1197 16.6273 18.215 16.9573 18.215 17.324C18.215 17.764 18.0977 18.1307 17.863 18.424C17.6283 18.7173 17.313 18.9337 16.917 19.073ZM14.079 18.567H15.63C16.0407 18.567 16.3597 18.4753 16.587 18.292C16.8217 18.1013 16.939 17.83 16.939 17.478C16.939 17.1333 16.8217 16.8657 16.587 16.675C16.3597 16.477 16.0407 16.378 15.63 16.378H14.079V18.567ZM15.773 21.977C16.1983 21.977 16.532 21.8743 16.774 21.669C17.016 21.4637 17.137 21.1777 17.137 20.811C17.137 20.437 17.0087 20.14 16.752 19.92C16.4953 19.7 16.1543 19.59 15.729 19.59H14.079V21.977H15.773ZM25.2427 16.939V23H23.9887V22.285C23.7907 22.5343 23.5304 22.7323 23.2077 22.879C22.8924 23.0183 22.555 23.088 22.1957 23.088C21.719 23.088 21.29 22.989 20.9087 22.791C20.5347 22.593 20.2377 22.2997 20.0177 21.911C19.805 21.5223 19.6987 21.053 19.6987 20.503V16.939H20.9417V20.316C20.9417 20.8587 21.0774 21.2767 21.3487 21.57C21.62 21.856 21.9904 21.999 22.4597 21.999C22.929 21.999 23.2994 21.856 23.5707 21.57C23.8494 21.2767 23.9887 20.8587 23.9887 20.316V16.939H25.2427ZM27.5353 16.136C27.3079 16.136 27.1173 16.059 26.9633 15.905C26.8093 15.751 26.7323 15.5603 26.7323 15.333C26.7323 15.1057 26.8093 14.915 26.9633 14.761C27.1173 14.607 27.3079 14.53 27.5353 14.53C27.7553 14.53 27.9423 14.607 28.0963 14.761C28.2503 14.915 28.3273 15.1057 28.3273 15.333C28.3273 15.5603 28.2503 15.751 28.0963 15.905C27.9423 16.059 27.7553 16.136 27.5353 16.136ZM28.1513 16.939V23H26.8973V16.939H28.1513ZM31.0517 14.86V23H29.7977V14.86H31.0517ZM34.161 17.962V21.317C34.161 21.5443 34.2124 21.7093 34.315 21.812C34.425 21.9073 34.6084 21.955 34.865 21.955H35.635V23H34.645C34.0804 23 33.6477 22.868 33.347 22.604C33.0464 22.34 32.896 21.911 32.896 21.317V17.962H32.181V16.939H32.896V15.432H34.161V16.939H35.635V17.962H34.161ZM47.7882 16.939L45.9072 23H44.5872L43.3662 18.523L42.1452 23H40.8252L38.9332 16.939H40.2092L41.4742 21.812L42.7612 16.939H44.0702L45.3022 21.79L46.5562 16.939H47.7882ZM49.3634 16.136C49.1361 16.136 48.9454 16.059 48.7914 15.905C48.6374 15.751 48.5604 15.5603 48.5604 15.333C48.5604 15.1057 48.6374 14.915 48.7914 14.761C48.9454 14.607 49.1361 14.53 49.3634 14.53C49.5834 14.53 49.7704 14.607 49.9244 14.761C50.0784 14.915 50.1554 15.1057 50.1554 15.333C50.1554 15.5603 50.0784 15.751 49.9244 15.905C49.7704 16.059 49.5834 16.136 49.3634 16.136ZM49.9794 16.939V23H48.7254V16.939H49.9794ZM53.0888 17.962V21.317C53.0888 21.5443 53.1401 21.7093 53.2428 21.812C53.3528 21.9073 53.5361 21.955 53.7928 21.955H54.5628V23H53.5728C53.0081 23 52.5754 22.868 52.2748 22.604C51.9741 22.34 51.8238 21.911 51.8238 21.317V17.962H51.1088V16.939H51.8238V15.432H53.0888V16.939H54.5628V17.962H53.0888ZM58.8536 16.84C59.3156 16.84 59.7262 16.939 60.0856 17.137C60.4522 17.335 60.7382 17.6283 60.9436 18.017C61.1562 18.4057 61.2626 18.875 61.2626 19.425V23H60.0196V19.612C60.0196 19.0693 59.8839 18.655 59.6126 18.369C59.3412 18.0757 58.9709 17.929 58.5016 17.929C58.0322 17.929 57.6582 18.0757 57.3796 18.369C57.1082 18.655 56.9726 19.0693 56.9726 19.612V23H55.7186V14.86H56.9726V17.643C57.1852 17.3863 57.4529 17.1883 57.7756 17.049C58.1056 16.9097 58.4649 16.84 58.8536 16.84Z" fill="white"/>
    <path d="M95.9086 15.651C96.7316 15.651 97.4331 15.8641 98.0132 16.2904C98.5933 16.7167 98.9921 17.2816 99.2099 17.9853V15.7543H100.237V23.8756H99.2099V21.6446C98.9921 22.3488 98.5933 22.9141 98.0132 23.3404C97.4331 23.7667 96.7316 23.9798 95.9086 23.9798C95.1748 23.9798 94.5179 23.8112 93.9378 23.4742C93.3578 23.1372 92.9066 22.6537 92.5843 22.0238C92.262 21.3939 92.1008 20.6576 92.1008 19.815C92.1008 18.9624 92.262 18.2212 92.5843 17.5914C92.9066 16.9621 93.3554 16.4814 93.9305 16.1492C94.5055 15.8171 95.165 15.651 95.9086 15.651ZM96.1762 16.5727C95.264 16.5727 94.5327 16.8627 93.9821 17.4428C93.4322 18.0229 93.1573 18.8136 93.1573 19.815C93.1573 20.8163 93.4322 21.607 93.9821 22.1871C94.5327 22.7672 95.264 23.0572 96.1762 23.0572C96.7513 23.0572 97.2693 22.9234 97.7299 22.6558C98.1913 22.3882 98.5532 22.009 98.8159 21.5182C99.0786 21.0273 99.2099 20.4596 99.2099 19.815C99.2099 19.1703 99.0786 18.6029 98.8159 18.1127C98.5532 17.6218 98.1913 17.2423 97.7299 16.9741C97.2693 16.7065 96.7513 16.5727 96.1762 16.5727ZM106.84 15.651C107.584 15.651 108.241 15.8171 108.811 16.1492C109.381 16.4814 109.827 16.9621 110.15 17.5914C110.472 18.2212 110.633 18.9624 110.633 19.815C110.633 20.6576 110.472 21.3939 110.15 22.0238C109.827 22.6537 109.378 23.1372 108.803 23.4742C108.228 23.8112 107.574 23.9798 106.84 23.9798C106.007 23.9798 105.303 23.7667 104.728 23.3404C104.153 22.9141 103.756 22.3488 103.539 21.6446V27.7129H102.497V15.7543H103.539V17.9853C103.756 17.2816 104.153 16.7167 104.728 16.2904C105.303 15.8641 106.007 15.651 106.84 15.651ZM106.558 16.5727C105.983 16.5727 105.464 16.7065 105.003 16.9741C104.542 17.2423 104.183 17.6218 103.925 18.1127C103.668 18.6029 103.539 19.1703 103.539 19.815C103.539 20.4596 103.668 21.0273 103.925 21.5182C104.183 22.009 104.542 22.3882 105.003 22.6558C105.464 22.9234 105.983 23.0572 106.558 23.0572C107.48 23.0572 108.214 22.7672 108.759 22.1871C109.304 21.607 109.577 20.8163 109.577 19.815C109.577 18.8136 109.304 18.0229 108.759 17.4428C108.214 16.8627 107.48 16.5727 106.558 16.5727ZM116.85 15.651C117.593 15.651 118.25 15.8171 118.82 16.1492C119.391 16.4814 119.837 16.9621 120.159 17.5914C120.481 18.2212 120.643 18.9624 120.643 19.815C120.643 20.6576 120.481 21.3939 120.159 22.0238C119.837 22.6537 119.388 23.1372 118.813 23.4742C118.238 23.8112 117.583 23.9798 116.85 23.9798C116.017 23.9798 115.313 23.7667 114.738 23.3404C114.163 22.9141 113.766 22.3488 113.548 21.6446V27.7129H112.507V15.7543H113.548V17.9853C113.766 17.2816 114.163 16.7167 114.738 16.2904C115.313 15.8641 116.017 15.651 116.85 15.651ZM116.567 16.5727C115.992 16.5727 115.474 16.7065 115.013 16.9741C114.552 17.2423 114.193 17.6218 113.935 18.1127C113.677 18.6029 113.548 19.1703 113.548 19.815C113.548 20.4596 113.677 21.0273 113.935 21.5182C114.193 22.009 114.552 22.3882 115.013 22.6558C115.474 22.9234 115.992 23.0572 116.567 23.0572C117.489 23.0572 118.223 22.7672 118.769 22.1871C119.314 21.607 119.586 20.8163 119.586 19.815C119.586 18.8136 119.314 18.0229 118.769 17.4428C118.223 16.8627 117.489 16.5727 116.567 16.5727ZM132.169 15.6362H134.132L131.916 23.8756H129.596L127.826 17.882L126.011 23.8756H123.692L121.49 15.6362H123.587L124.926 22.0016L126.755 15.6362H128.971L130.815 22.0016L132.169 15.6362ZM137.271 17.2121C137.578 16.6869 137.984 16.2729 138.49 15.9702C138.996 15.6683 139.561 15.5172 140.186 15.5172V17.763H139.576C138.039 17.763 137.271 18.4768 137.271 19.9044V23.8756H135.174V15.6362H137.271V17.2121ZM141.108 13.2706C141.108 12.9335 141.227 12.6586 141.465 12.4457C141.703 12.2323 142.015 12.1255 142.401 12.1255C142.788 12.1255 143.101 12.2323 143.339 12.4457C143.577 12.6586 143.696 12.9335 143.696 13.2706C143.696 13.5978 143.577 13.8682 143.339 14.0816C143.101 14.295 142.788 14.4017 142.401 14.4017C142.015 14.4017 141.703 14.295 141.465 14.0816C141.227 13.8682 141.108 13.5978 141.108 13.2706ZM141.346 15.6362H143.443V23.8756H141.346V15.6362ZM148.931 22.0755H149.749V23.8756H148.648C147.726 23.8756 147.02 23.6525 146.529 23.2066C146.038 22.7601 145.792 22.0164 145.792 20.9756V17.4059H144.647V15.6362H145.792V13.5981H147.89V15.6362H149.734V17.4059H147.89V21.0052C147.89 21.4019 147.969 21.6796 148.128 21.8383C148.286 21.9964 148.554 22.0755 148.931 22.0755ZM159 19.4431C159 19.6516 158.975 19.8897 158.926 20.1573H152.887C152.917 20.891 153.115 21.4314 153.482 21.7784C153.849 22.1253 154.305 22.2987 154.851 22.2987C155.337 22.2987 155.74 22.1797 156.062 21.9417C156.384 21.7043 156.59 21.3823 156.679 20.9756H158.896C158.787 21.5507 158.554 22.0662 158.197 22.522C157.84 22.9785 157.381 23.3355 156.822 23.5932C156.261 23.8509 155.639 23.9798 154.955 23.9798C154.152 23.9798 153.438 23.8088 152.813 23.4668C152.188 23.1248 151.703 22.6364 151.356 22.0016C151.008 21.3669 150.834 20.6183 150.834 19.7559C150.834 18.8929 151.008 18.1419 151.356 17.5028C151.703 16.8631 152.188 16.3746 152.813 16.0376C153.438 15.7006 154.152 15.532 154.955 15.532C155.767 15.532 156.479 15.7006 157.089 16.0376C157.699 16.3746 158.17 16.8382 158.502 17.428C158.834 18.0179 159 18.6896 159 19.4431ZM156.888 19.2355C156.918 18.5608 156.742 18.0499 156.36 17.703C155.978 17.3561 155.51 17.1826 154.955 17.1826C154.39 17.1826 153.914 17.3561 153.527 17.703C153.14 18.0499 152.927 18.5608 152.887 19.2355H156.888Z" fill="white"/>
    <path d="M89.0077 20.0523C89.0077 23.3646 86.3226 26.0496 83.0104 26.0496C81.4719 26.0496 80.0687 25.4703 79.0071 24.5179C80.7078 23.7523 81.8919 22.0427 81.8919 20.0566C81.8919 18.068 80.7049 16.3566 79.0007 15.5924C80.0632 14.6367 81.4688 14.0551 83.0104 14.0551C86.3226 14.0551 89.0077 16.7401 89.0077 20.0523Z" fill="white"/>
    <path d="M80.6131 15.2652C79.9845 14.7902 79.2685 14.4436 78.5059 14.2454C77.7433 14.0472 76.9491 14.0012 76.1688 14.1101C75.3884 14.2189 74.6371 14.4805 73.9579 14.8798C73.2786 15.2791 72.6847 15.8084 72.2101 16.4373C71.7355 17.0663 71.3895 17.7826 71.1918 18.5453C70.9941 19.308 70.9487 20.1022 71.0581 20.8825C71.1675 21.6628 71.4296 22.4139 71.8294 23.0929C72.2292 23.7718 72.7588 24.3654 73.3881 24.8395C74.6578 25.7976 76.256 26.2121 77.8312 25.9918C79.4065 25.7715 80.8297 24.9345 81.7878 23.6648C82.7459 22.3952 83.1604 20.797 82.9401 19.2217C82.7198 17.6465 81.8828 16.2232 80.6131 15.2651V15.2652ZM79.9462 16.149C80.9814 16.9302 81.6639 18.0906 81.8435 19.3751C82.0231 20.6595 81.6852 21.9627 80.904 22.9979C80.1227 24.0331 78.9623 24.7157 77.6779 24.8953C76.3934 25.0749 75.0902 24.7369 74.055 23.9557C73.0198 23.1745 72.3373 22.014 72.1576 20.7296C71.978 19.4452 72.316 18.142 73.0972 17.1068C73.8784 16.0715 75.0389 15.389 76.3233 15.2094C77.6077 15.0298 78.9109 15.3677 79.9462 16.149Z" fill="white"/>
    <path d="M77.1614 17.9774C77.1542 17.9951 77.0625 18.3552 76.9638 18.7824C76.8613 19.2096 76.6989 19.8839 76.6073 20.2828C76.4306 21.0136 76.3247 21.4937 76.3247 21.5573C76.3247 21.5748 76.4342 21.5891 76.5682 21.5891H76.8119L76.9212 21.1018C76.9849 20.8371 77.1262 20.2298 77.2391 19.7532C77.3521 19.2766 77.4897 18.6976 77.5427 18.4646C77.5956 18.2315 77.6486 18.0198 77.6593 17.9951C77.6699 17.9634 77.6097 17.9529 77.4262 17.9529C77.2885 17.9529 77.1683 17.9634 77.1614 17.9774ZM75.2654 19.506L74.9407 19.8591L75.0361 19.9721C75.0889 20.0356 75.2338 20.1945 75.3573 20.3252L75.5833 20.5652H76.2258L75.9223 20.2368C75.7562 20.0605 75.6185 19.8909 75.6185 19.8698C75.6185 19.845 75.7457 19.6862 75.9011 19.5167C76.0563 19.3438 76.1835 19.1954 76.1835 19.1778C76.1835 19.1636 76.0493 19.153 75.8869 19.153H75.5939L75.2654 19.506ZM77.7368 19.1742C77.7368 19.1849 77.7968 19.2519 77.8708 19.326C78.1464 19.6014 78.3406 19.8345 78.33 19.8803C78.3229 19.9051 78.1887 20.0709 78.0264 20.2439L77.7335 20.5652H78.0616L78.39 20.5617L78.69 20.2334C78.856 20.05 78.9901 19.8873 78.9901 19.8662C78.9901 19.8486 78.8489 19.6826 78.6723 19.4956L78.3548 19.153H78.0474C77.8744 19.153 77.7368 19.1636 77.7368 19.1742Z" fill="white"/>
</svg>
